<?xml version="1.0" standalone="no"?>
<!DOCTYPE svg PUBLIC "-//W3C//DTD SVG 20010904//EN"
 "http://www.w3.org/TR/2001/REC-SVG-20010904/DTD/svg10.dtd">
<svg version="1.0" xmlns="http://www.w3.org/2000/svg"
 width="984.000000pt" height="984.000000pt" viewBox="0 0 984.000000 984.000000"
 preserveAspectRatio="xMidYMid meet">
<metadata>
Created by potrace 1.14, written by Peter Selinger 2001-2017
</metadata>
<g transform="translate(0.000000,984.000000) scale(0.100000,-0.100000)"
fill="#000000" stroke="none">
<path d="M5259 8856 c-2 -2 -40 -6 -84 -10 -120 -10 -257 -28 -320 -43 -11 -2
-29 -6 -40 -7 -39 -7 -101 -20 -145 -31 -11 -3 -30 -7 -41 -10 -90 -19 -271
-78 -409 -132 -110 -43 -420 -190 -430 -203 -3 -4 -34 -23 -70 -44 -68 -39
-97 -56 -114 -69 -40 -29 -85 -59 -111 -73 -16 -9 -34 -22 -40 -29 -5 -6 -28
-24 -50 -40 -54 -40 -54 -39 -110 -86 -126 -104 -279 -249 -365 -346 -76 -86
-135 -156 -143 -170 -7 -11 35 -13 265 -13 511 0 1243 -7 1276 -13 18 -4 41
-11 52 -17 33 -17 66 -11 152 29 101 47 254 102 262 94 3 -4 6 -2 6 4 0 5 6
10 13 11 16 1 52 10 52 13 0 1 9 3 20 4 11 1 38 7 60 13 22 6 54 14 70 16 17
3 41 8 55 11 101 22 195 29 400 30 180 0 326 -8 363 -20 7 -2 30 -6 52 -9 54
-7 69 -11 182 -41 54 -15 105 -28 113 -30 27 -6 174 -62 225 -86 28 -12 52
-23 55 -24 3 0 30 -14 60 -30 30 -16 58 -28 63 -27 4 1 7 -2 7 -8 0 -5 9 -10
20 -10 11 0 20 -3 20 -8 0 -4 20 -18 44 -31 51 -27 222 -147 292 -206 107 -90
295 -285 356 -370 4 -5 18 -23 31 -40 90 -116 202 -315 274 -485 45 -107 114
-322 128 -400 2 -14 6 -34 8 -45 11 -49 22 -128 33 -235 10 -87 10 -348 1
-435 -14 -135 -16 -150 -23 -175 -3 -14 -7 -36 -9 -50 -14 -105 -127 -462
-156 -495 -5 -5 -9 -17 -9 -27 0 -10 -4 -18 -10 -18 -5 0 -10 -7 -10 -15 0
-13 -28 -67 -109 -210 -26 -45 -122 -184 -154 -223 -168 -200 -282 -312 -432
-424 -5 -4 -23 -18 -40 -31 -67 -53 -209 -139 -320 -195 -170 -86 -383 -161
-560 -198 -53 -11 -83 -16 -110 -19 -16 -2 -30 -4 -30 -5 0 -3 -61 -10 -111
-13 -28 -2 -55 -6 -60 -9 -22 -11 -403 1 -492 16 -15 3 -56 10 -92 16 -36 5
-92 17 -125 25 -33 9 -68 17 -78 20 -10 2 -27 7 -37 10 -10 3 -27 7 -37 9 -19
4 -85 29 -138 51 -16 7 -41 16 -55 20 -14 4 -51 20 -84 36 -58 28 -58 28 -127
14 -52 -11 -152 -14 -420 -14 -193 0 -353 -2 -355 -3 -1 -2 -55 -1 -119 2 -64
3 -119 3 -121 1 -6 -6 -215 -1 -225 5 -4 2 -10 1 -12 -3 -3 -5 -58 -6 -122 -3
-64 3 -119 3 -121 1 -2 -3 -31 -3 -65 -2 -57 2 -59 2 -45 -16 110 -134 158
-188 275 -303 75 -74 156 -151 180 -170 24 -19 54 -45 67 -57 13 -13 27 -23
33 -23 5 0 11 -4 13 -8 2 -7 135 -109 195 -150 53 -36 195 -122 203 -122 4 0
10 -3 12 -7 1 -5 30 -22 63 -39 33 -18 90 -48 128 -68 37 -20 69 -36 72 -36 3
0 26 -10 52 -21 82 -36 235 -95 313 -121 140 -47 401 -114 480 -123 14 -1 52
-7 85 -13 237 -43 645 -49 925 -16 30 4 70 7 87 8 18 1 33 3 33 6 0 3 14 7 32
8 81 6 482 105 518 127 5 3 20 8 32 10 13 3 32 9 43 14 23 10 55 23 70 27 6 1
24 8 40 15 17 6 35 13 40 15 6 1 42 17 80 35 39 18 72 33 75 34 27 6 222 112
348 189 63 38 100 55 113 51 10 -4 19 -10 19 -13 0 -8 16 -27 150 -172 48 -52
101 -110 116 -128 16 -18 47 -53 69 -76 22 -24 74 -80 115 -126 41 -46 89 -98
105 -116 27 -29 138 -151 190 -209 11 -12 58 -64 105 -115 47 -52 94 -104 105
-116 56 -62 166 -182 186 -205 13 -14 60 -65 104 -114 44 -49 98 -108 120
-132 l40 -44 41 38 c22 21 80 74 129 118 97 89 114 104 242 221 48 45 108 99
132 120 23 22 62 57 86 79 23 22 76 70 116 107 41 36 94 85 118 107 24 23 48
41 53 41 4 0 8 7 8 15 0 8 4 15 8 15 5 0 25 15 44 34 20 19 39 32 42 29 3 -4
6 -3 6 1 0 11 -35 52 -154 181 -55 60 -123 134 -151 164 -27 30 -59 65 -70 76
-18 19 -145 158 -215 235 -50 55 -196 214 -220 240 -34 37 -189 206 -220 240
-14 15 -63 69 -110 120 -47 51 -98 107 -114 124 -15 17 -47 51 -70 76 -23 25
-70 76 -104 113 l-61 68 28 42 c15 23 37 58 47 77 10 19 21 37 24 40 19 19
142 266 194 389 63 149 125 331 151 441 2 8 13 53 25 99 12 47 24 98 26 115 6
37 10 62 18 96 5 23 8 40 21 138 5 39 14 124 20 207 5 65 5 404 0 475 -6 91
-16 183 -21 210 -6 32 -13 74 -19 125 -5 40 -10 64 -40 200 -19 81 -20 89 -34
133 -5 18 -10 33 -10 35 0 8 -80 253 -94 287 -6 14 -11 27 -12 30 -1 3 -7 19
-14 35 -6 17 -17 44 -23 60 -18 45 -187 378 -196 384 -4 3 -13 17 -20 31 -14
30 -21 41 -91 145 -182 271 -404 517 -660 732 -19 15 -42 36 -52 46 -11 9 -22
17 -25 17 -4 0 -23 14 -43 30 -49 42 -45 38 -146 107 -103 69 -178 117 -185
118 -3 1 -21 11 -40 23 -52 34 -323 166 -414 202 -113 45 -247 92 -272 95 -12
2 -30 8 -41 13 -11 6 -30 13 -44 15 -13 2 -31 6 -39 9 -8 4 -35 11 -60 16 -25
6 -58 14 -75 18 -50 12 -59 14 -85 18 -14 3 -68 12 -120 21 -52 9 -120 18
-150 21 -30 3 -68 8 -85 10 -35 6 -531 15 -536 10z"/>
<path d="M875 7082 c-2 -2 -23 -6 -47 -8 -84 -9 -104 -12 -153 -24 -27 -6 -60
-14 -72 -16 -12 -2 -33 -8 -47 -14 -13 -5 -27 -6 -30 -3 -3 4 -6 1 -6 -5 0 -7
-8 -12 -19 -12 -24 0 -194 -84 -211 -105 -7 -8 -16 -15 -21 -15 -5 0 -17 -8
-27 -18 -10 -10 -27 -25 -38 -33 -55 -39 -145 -203 -159 -288 -3 -19 -8 -37
-10 -41 -17 -28 -27 -416 -12 -510 4 -25 14 -70 23 -100 8 -30 18 -65 21 -78
3 -12 9 -25 14 -28 5 -3 9 -14 9 -25 0 -10 5 -19 10 -19 6 0 10 -5 10 -10 0
-21 69 -119 117 -167 27 -27 71 -64 99 -83 27 -18 59 -42 72 -54 13 -12 24
-19 25 -17 2 6 60 -30 68 -42 3 -5 8 -8 10 -6 2 1 22 -9 44 -23 22 -13 117
-69 210 -123 94 -55 171 -103 173 -107 2 -4 8 -8 14 -8 16 0 177 -107 234
-156 28 -24 56 -56 62 -71 5 -15 13 -37 18 -48 17 -47 25 -106 29 -223 8 -216
-54 -306 -206 -297 -59 3 -89 17 -114 55 -27 40 -34 113 -35 354 0 137 -2 252
-5 254 -6 6 -877 4 -883 -3 -16 -16 2 -456 23 -555 3 -14 7 -34 9 -45 41 -215
154 -354 381 -467 65 -32 212 -84 260 -92 17 -2 30 -5 30 -6 0 -2 17 -5 80
-15 78 -13 111 -16 191 -19 45 -2 87 -6 93 -10 6 -4 11 -4 11 1 0 9 52 9 67 0
6 -4 13 -4 17 0 3 3 35 7 71 9 35 1 81 6 102 9 21 4 49 8 63 10 73 11 97 16
165 35 247 69 439 198 513 345 20 40 44 115 48 147 0 9 4 24 8 35 27 69 28
487 1 613 -3 14 -7 36 -10 50 -11 56 -45 163 -57 177 -7 9 -11 17 -8 17 13 3
-68 123 -115 170 -60 60 -175 150 -270 211 -145 92 -162 103 -325 193 -25 13
-51 29 -57 35 -7 5 -13 6 -13 3 0 -4 -12 1 -27 11 -16 10 -41 25 -58 33 -64
31 -202 120 -237 154 -42 40 -65 79 -73 126 -3 19 -8 37 -11 42 -10 16 -6 184
6 228 24 89 77 133 160 133 64 0 101 -21 124 -68 19 -39 22 -88 26 -411 0 -9
117 -12 444 -12 l444 0 1 31 c0 18 1 39 2 47 3 41 -12 310 -20 342 -5 20 -6
39 -4 42 3 2 1 10 -3 17 -4 7 -9 22 -10 33 -1 12 -4 28 -7 36 -2 8 -7 29 -12
45 -12 49 -70 137 -119 183 -25 23 -47 42 -50 42 -3 0 -24 13 -48 29 -61 41
-196 101 -261 116 -10 2 -27 7 -37 10 -31 10 -69 18 -135 29 -16 3 -41 8 -55
11 -64 14 -474 28 -485 17z"/>
<path d="M5565 7081 c-2 -2 -30 -5 -62 -6 -128 -6 -330 -58 -453 -118 -47 -22
-86 -45 -88 -49 -2 -4 -8 -8 -14 -8 -15 0 -85 -57 -143 -115 -124 -127 -192
-277 -211 -465 -25 -262 -25 -1564 1 -1807 12 -116 48 -230 97 -308 110 -174
272 -296 488 -369 73 -24 91 -29 155 -41 17 -3 40 -7 51 -10 41 -9 149 -18
231 -19 46 -1 83 -5 83 -9 0 -5 5 -5 11 -1 6 3 45 8 87 10 77 3 155 11 182 19
8 2 31 7 50 10 49 8 145 34 178 47 242 97 381 211 485 400 32 57 66 167 72
228 23 253 23 260 24 960 1 560 -1 648 -14 840 -6 91 -12 136 -30 200 -1 3 -5
19 -10 35 -4 17 -14 42 -22 57 -7 15 -13 30 -13 33 0 14 -99 146 -144 191 -74
75 -130 114 -231 164 -108 52 -124 59 -150 63 -11 1 -25 6 -31 9 -6 4 -21 9
-35 12 -13 3 -35 7 -49 10 -63 14 -149 28 -195 32 -73 6 -295 10 -300 5z m202
-560 c23 -11 38 -44 52 -111 11 -50 14 -1927 3 -1945 -3 -5 -7 -25 -9 -43 -6
-79 -69 -129 -151 -119 -84 9 -108 46 -119 182 -10 115 -9 1822 1 1894 4 30 9
62 11 71 5 28 28 60 47 66 10 3 18 9 18 13 0 4 14 8 32 9 18 2 34 4 36 6 5 5
54 -9 79 -23z"/>
<path d="M2540 5425 l0 -1595 855 0 855 0 0 319 0 319 -362 1 c-200 0 -368 0
-375 0 -8 1 -11 90 -10 349 l2 347 318 3 317 2 1 23 c1 26 0 533 0 562 -1 20
-8 20 -318 20 l-318 0 -1 300 c-1 165 2 302 6 305 4 3 158 5 342 4 l333 0 0
315 0 316 -823 3 -822 2 0 -1595z"/>
</g>
</svg>
